<?xml version="1.0" standalone="no"?><!DOCTYPE svg PUBLIC "-//W3C//DTD SVG 1.1//EN" "http://www.w3.org/Graphics/SVG/1.1/DTD/svg11.dtd"><svg t="1523588476377" class="icon" style="" viewBox="0 0 1024 1024" version="1.1" xmlns="http://www.w3.org/2000/svg" p-id="3675" xmlns:xlink="http://www.w3.org/1999/xlink" width="200" height="200"><defs><style type="text/css"></style></defs><path d="M426.462347 421.61648l0.286526 0c0-30.725792 6.223748-54.455239 18.651802-71.215972 13.801331-20.016893 36.366256-30.019711 67.674309-30.019711 25.313525 0 44.880163 6.976902 58.683541 20.941961 13.343913 14.432711 20.025079 33.513278 20.025079 57.250912 0 17.219173-6.452969 34.21015-19.338441 50.961672l-11.740392 13.267165c-43.277666 39.096437-69.27783 67.951625-78.020958 86.582961-9.201569 17.219173-13.802354 39.327704-13.802354 66.319451l0 11.874445 73.878614 0 0-11.874445c0-17.21815 3.665483-32.586163 11.034311-46.083571 6.452969-13.495362 16.111956-25.600051 29.015847-36.308951 32.682353-28.854165 52.001351-46.99943 57.995879-54.454216 17.48728-22.803355 26.230408-51.189869 26.230408-85.169775 0-42.351574-13.821797-75.634608-41.425482-99.832729-27.145244-24.672936-63.073524-37.005822-107.706047-37.005822-51.103912 0-91.155093 14.891152-120.134101 44.680619-28.062126 28.357861-42.531676 66.729797-43.448558 115.112738-0.037862 0.620124-0.057305 1.25048-0.057305 1.880837 0 0.285502 0 0.573051 0.019443 0.849344-0.019443 0.744967-0.019443 1.488911-0.019443 2.243087l0.13303 0c1.547239 18.745946 17.086144 33.474392 36.042891 33.474392C409.377226 455.090872 424.916131 440.362426 426.462347 421.61648z" p-id="3676" fill="#ffffff"></path><path d="M510.650771 61.366649c-248.305249 0-449.610044 201.295586-449.610044 449.610044 0 248.324692 201.304795 449.610044 449.610044 449.610044 248.323669 0 449.610044-201.285353 449.610044-449.610044C960.260815 262.662235 758.973416 61.366649 510.650771 61.366649zM510.650771 901.943107c-215.928864 0-390.966413-175.037549-390.966413-390.966413s175.037549-390.965389 390.966413-390.965389c215.927841 0 390.965389 175.036525 390.965389 390.965389S726.577588 901.943107 510.650771 901.943107z" p-id="3677" fill="#ffffff"></path><path d="M542.072411 679.237909c9.660011 8.838296 14.490016 20.694321 14.490016 35.601846 0 13.956873-5.059226 26.058492-15.176654 36.291554-10.136871 9.31618-22.107507 13.974269-35.908838 13.974269-14.279215 0-26.230408-4.888334-35.908838-14.661931s-14.488992-21.647019-14.488992-35.603893c0-14.907525 4.810562-26.76355 14.488992-35.601846 9.221012-9.31618 21.170159-13.974269 35.908838-13.974269C520.653589 665.263639 532.870842 669.921729 542.072411 679.237909z" p-id="3678" fill="#ffffff"></path></svg>