<?xml version="1.0" standalone="no"?><!DOCTYPE svg PUBLIC "-//W3C//DTD SVG 1.1//EN" "http://www.w3.org/Graphics/SVG/1.1/DTD/svg11.dtd"><svg t="1523588501393" class="icon" style="" viewBox="0 0 1024 1024" version="1.1" xmlns="http://www.w3.org/2000/svg" p-id="3851" xmlns:xlink="http://www.w3.org/1999/xlink" width="200" height="200"><defs><style type="text/css"></style></defs><path d="M511.889995 128.745223c-201.858404 0-365.490182 163.631778-365.490182 365.490182 0 201.857381 163.631778 365.489158 365.490182 365.489158s365.489158-163.631778 365.489158-365.489158C877.379153 292.377 713.748399 128.745223 511.889995 128.745223zM508.508991 293.216111c53.511751 0 96.886631 43.741223 96.886631 97.707322 0 53.984518-43.37488 97.733928-96.886631 97.733928s-96.886631-43.74941-96.886631-97.733928C411.62236 336.956312 454.99724 293.216111 508.508991 293.216111zM338.283028 656.331199c0-79.048357 20.014846-109.092627 80.762395-141.367705 23.86964-12.706393 60.427254 16.303314 88.757486 16.303314 28.098965 0 65.067948-28.822442 88.847537-16.303314 61.034075 32.175817 88.846514 62.033845 88.846514 141.367705C685.497984 682.966836 338.283028 684.769902 338.283028 656.331199z" p-id="3852" fill="#ffffff"></path></svg>