<?xml version="1.0" standalone="no"?><!DOCTYPE svg PUBLIC "-//W3C//DTD SVG 1.1//EN" "http://www.w3.org/Graphics/SVG/1.1/DTD/svg11.dtd"><svg t="1523347341389" class="icon" style="" viewBox="0 0 1024 1024" version="1.1" xmlns="http://www.w3.org/2000/svg" p-id="1109" xmlns:xlink="http://www.w3.org/1999/xlink" width="200" height="200"><defs><style type="text/css"></style></defs><path d="M800 895.968 672 895.968 668.768 895.968 602.112 895.968C605.696 885.92 608 875.264 608 863.968 608 810.944 565.024 767.968 512 767.968 458.976 767.968 416 810.944 416 863.968 416 875.264 418.304 885.92 421.888 895.968L355.232 895.968 352 895.968 224 895.968C188.64 895.968 160 867.328 160 831.968L160 192C160 156.64 188.64 127.968 224 127.968L352 127.968 355.232 127.968 421.888 127.968C418.304 138.048 416 148.704 416 160 416 212.992 458.976 256 512 256 565.024 256 608 212.992 608 160 608 148.704 605.696 138.048 602.112 127.968L668.768 127.968 672 127.968 800 127.968C835.328 127.968 864 156.64 864 192L864 831.968C864 867.328 835.328 895.968 800 895.968ZM800 191.968 668.768 191.968C653.952 264.992 589.408 319.968 512 319.968 434.592 319.968 370.048 264.992 355.232 191.968L224 191.968 224 832 355.232 832C370.048 758.944 434.592 704 512 704 589.408 704 653.952 758.944 668.768 832L800 832 800 191.968ZM624 640 592 640C583.168 640 576 632.832 576 624L576 400C576 391.168 583.168 384 592 384L624 384C632.832 384 640 391.168 640 400L640 624C640 632.832 632.832 640 624 640ZM432 640 400 640C391.168 640 384 632.832 384 624L384 400C384 391.168 391.168 384 400 384L432 384C440.832 384 448 391.168 448 400L448 624C448 632.832 440.832 640 432 640Z" p-id="1110" fill="#A0CFFF"></path></svg>