<?xml version="1.0" standalone="no"?><!DOCTYPE svg PUBLIC "-//W3C//DTD SVG 1.1//EN" "http://www.w3.org/Graphics/SVG/1.1/DTD/svg11.dtd"><svg t="1523344015807" class="icon" style="" viewBox="0 0 1024 1024" version="1.1" xmlns="http://www.w3.org/2000/svg" p-id="1404" xmlns:xlink="http://www.w3.org/1999/xlink" width="200" height="200"><defs><style type="text/css"></style></defs><path d="M737.004 66.114H287.49c-29.913 0-54.156 24.243-54.156 54.15v785.733c0 29.909 24.243 54.15 54.156 54.15h449.513c29.903 0 54.149-24.242 54.149-54.15V120.264c0-29.902-24.246-54.15-54.15-54.15z m-274.905 67.702h100.287c7.917 0 14.331 6.41 14.331 14.327 0 7.912-6.414 14.328-14.331 14.328H462.099c-7.912 0-14.323-6.416-14.323-14.328 0-7.916 6.411-14.327 14.323-14.327z m50.142 783.833c-24.53 0-44.41-19.885-44.41-44.41 0-24.53 19.88-44.421 44.41-44.421 24.532 0 44.416 19.89 44.416 44.42 0 24.526-19.884 44.41-44.416 44.41z m226.366-126.075h-452.73V209.91h452.73v581.665z m0 0" p-id="1405" fill="#E6A23C"></path></svg>