<?xml version="1.0" standalone="no"?><!DOCTYPE svg PUBLIC "-//W3C//DTD SVG 1.1//EN" "http://www.w3.org/Graphics/SVG/1.1/DTD/svg11.dtd"><svg t="1522806937304" class="icon" style="" viewBox="0 0 1024 1024" version="1.1" xmlns="http://www.w3.org/2000/svg" p-id="2053" xmlns:xlink="http://www.w3.org/1999/xlink" width="200" height="200"><defs><style type="text/css"></style></defs><path d="M16 440.8 16 440.8l160-144 0 0c8.8-8 20-12.8 32-12.8 26.4 0 48 21.6 48 48 0 14.4-6.4 26.4-16 35.2l0 0-67.2 60L400 427.2l0 0 208 0 0 0 243.2 0 0 0L976 427.2c26.4 0 48 21.6 48 48 0 26.4-21.6 48-48 48L672 523.2 560 523.2c0 0 0 0 0 0L464 523.2l0 0L172.8 523.2 240 584l0 0c9.6 8.8 16 21.6 16 35.2 0 26.4-21.6 48-48 48-12 0-23.2-4.8-32-12.8l0 0L16 512l0 0c-9.6-8.8-16-21.6-16-35.2C0 461.6 6.4 449.6 16 440.8z" p-id="2054" fill="#ffffff"></path></svg>