<?xml version="1.0" standalone="no"?><!DOCTYPE svg PUBLIC "-//W3C//DTD SVG 1.1//EN" "http://www.w3.org/Graphics/SVG/1.1/DTD/svg11.dtd"><svg t="1523607227864" class="icon" style="" viewBox="0 0 1024 1024" version="1.1" xmlns="http://www.w3.org/2000/svg" p-id="1109" xmlns:xlink="http://www.w3.org/1999/xlink" width="200" height="200"><defs><style type="text/css"></style></defs><path d="M153.6 428.8v-57.6c0-96 38.4-192 102.4-256S409.6 12.8 512 12.8c96 0 192 38.4 256 108.8 64 64 108.8 153.6 108.8 256v57.6c12.8 0 19.2 0 32 6.4s19.2 12.8 25.6 19.2c6.4 6.4 12.8 19.2 19.2 25.6 6.4 12.8 6.4 19.2 6.4 32v153.6c0 12.8 0 25.6-6.4 32-6.4 12.8-12.8 19.2-19.2 25.6-6.4 6.4-19.2 12.8-25.6 19.2-6.4 6.4-19.2 6.4-32 6.4h-12.8c-6.4 51.2-38.4 96-83.2 128-44.8 32-115.2 64-185.6 70.4-19.2 32-51.2 57.6-83.2 57.6-38.4 0-76.8-32-76.8-76.8s32-76.8 76.8-76.8c32 0 57.6 19.2 70.4 51.2 64-12.8 121.6-32 160-64 38.4-25.6 57.6-57.6 64-89.6h-12.8c-12.8 0-25.6 0-32-6.4-12.8-6.4-19.2-12.8-25.6-19.2-12.8-12.8-25.6-38.4-25.6-57.6V518.4c0-12.8 0-19.2 6.4-32s12.8-19.2 19.2-25.6c12.8-12.8 38.4-25.6 57.6-25.6v-44.8c-12.8-44.8-38.4-83.2-70.4-115.2-51.2-51.2-128-89.6-211.2-89.6-83.2 0-153.6 32-211.2 89.6-32 32-57.6 70.4-70.4 115.2v38.4c12.8 0 19.2 0 32 6.4 6.4 6.4 19.2 12.8 25.6 19.2 6.4 6.4 12.8 19.2 19.2 25.6 6.4 12.8 6.4 19.2 6.4 32v153.6c0 12.8 0 25.6-6.4 32-6.4 12.8-12.8 19.2-19.2 25.6-6.4 6.4-19.2 12.8-25.6 19.2-6.4 6.4-19.2 6.4-32 6.4H153.6c-12.8 0-25.6 0-32-6.4-12.8-6.4-19.2-12.8-25.6-19.2-12.8-12.8-25.6-38.4-25.6-57.6V518.4c0-12.8 0-19.2 6.4-32s12.8-19.2 19.2-25.6c12.8-19.2 32-32 57.6-32zM512 902.4c-19.2 0-32 12.8-32 32s12.8 32 32 32 32-12.8 32-32-12.8-32-32-32zM192 505.6h-38.4-6.4v166.4h89.6V518.4h-6.4H192v-12.8z m640 0h-38.4-6.4v166.4h89.6V518.4h-6.4-38.4v-12.8zM768 256c-12.8-32-32-57.6-57.6-83.2-51.2-51.2-121.6-83.2-198.4-83.2-76.8 0-147.2 32-198.4 83.2-25.6 25.6-44.8 51.2-57.6 83.2l12.8-12.8c64-64 147.2-102.4 243.2-102.4s179.2 38.4 243.2 102.4c6.4 6.4 12.8 6.4 12.8 12.8z" fill="#C0C4CC" p-id="1110"></path></svg>